<svg id="Layer_1" enable-background="new 0 0 512 512" height="512" viewBox="0 0 512 512" width="512" xmlns="http://www.w3.org/2000/svg"><g><path d="m329.603 263.082v-72.194c0-5.523-4.477-10-10-10h-81.865c-5.523 0-10 4.477-10 10v72.194h-41.431c-8.102-.131-12.965 9.611-7.995 16.007l92.363 122.922c3.742 5.266 12.247 5.265 15.989 0l92.363-122.922c2.276-3.03 2.645-7.085.952-10.476-1.693-3.39-5.157-5.532-8.946-5.532h-41.43zm-50.933 116.275-72.341-96.275h31.408c5.523 0 10-4.477 10-10v-72.194h61.865v72.194c0 5.523 4.477 10 10 10h31.408z"/><path d="m421.001 70.852h-61.531c-3.137-39.59-36.333-70.852-76.716-70.852h-1.66c-8.786 0-17.223 1.499-25.094 4.222-7.871-2.723-16.308-4.222-25.094-4.222h-1.66c-40.383 0-73.579 31.262-76.717 70.852h-61.53c-5.523 0-10 4.477-10 10v398.927c0 17.767 14.456 32.222 32.224 32.222h285.556c17.768 0 32.224-14.455 32.224-32.222v-398.927c-.002-5.523-4.479-10-10.002-10zm-138.247-50.852c29.349 0 53.58 22.304 56.649 50.852h-31.779c-1.593-20.095-10.913-38.049-25.009-50.852zm-26.754 5.839c17.127 8.437 29.427 25.221 31.555 45.013h-63.11c2.128-19.792 14.428-36.576 31.555-45.013zm-26.754-5.839h.139c-14.096 12.803-23.416 30.757-25.008 50.852h-31.779c3.068-28.548 27.299-50.852 56.648-50.852zm-128.247 459.778v-388.926h25.34v401.148h-13.117c-6.74 0-12.223-5.482-12.223-12.222zm112.646 12.222v-40.702h130.052v40.702zm197.356-12.222c0 6.739-5.483 12.222-12.224 12.222h-35.082v-50.702c0-5.523-4.477-10-10-10h-150.05c-5.523 0-10 4.477-10 10v50.702h-47.306v-401.148h57.771v33.553h-5.83c-13.268.528-13.258 19.477 0 20h31.66c13.268-.528 13.258-19.477 0-20h-5.83v-33.553h115.627v33.553h-5.83c-13.268.528-13.258 19.477 0 20h31.66c13.268-.528 13.258-19.477 0-20h-5.83v-33.553h51.264z"/></g></svg>