<svg height="512" viewBox="0 0 512 512" width="512" xmlns="http://www.w3.org/2000/svg"><g><g><path d="m16 200h480v48h-480z" fill="#ffda44"/><path d="m406.49 488h-300.98a20 20 0 0 1 -19.824-17.357l-29.686-222.643h400l-29.686 222.643a20 20 0 0 1 -19.824 17.357z" fill="#cca400"/><g fill="#3e3d42"><path d="m240 288h32v160h-32z"/><path d="m128 288h32v160h-32z"/><path d="m352 288h32v160h-32z"/><path d="m63.91 200 63.514-169.4a16 16 0 0 1 20.6-9.364 16 16 0 0 1 9.364 20.6l-59.308 158.164"/><path d="m414.83 200-59.3-158.169a16 16 0 0 1 9.364-20.6 16 16 0 0 1 20.592 9.369l63.514 169.4"/></g></g><g><path d="m496 192h-41.46l-61.56-164.21a24 24 0 1 0 -44.94 16.85l55.25 147.36h-293.67l55.25-147.36a24 24 0 1 0 -44.94-16.85l-61.56 164.21h-42.37a8 8 0 0 0 -8 8v48a8 8 0 0 0 8 8h33l28.76 215.7a28.085 28.085 0 0 0 27.75 24.3h300.98a28.085 28.085 0 0 0 27.75-24.3l28.76-215.7h33a8 8 0 0 0 8-8v-48a8 8 0 0 0 -8-8zm-132.98-152.98a7.99 7.99 0 0 1 4.68-10.29 8.009 8.009 0 0 1 10.3 4.68l59.46 158.59h-17.09zm-228.1-5.61a7.993 7.993 0 1 1 14.97 5.61l-57.35 152.98h-17.09zm283.46 436.18a12.034 12.034 0 0 1 -11.89 10.41h-300.98a12.034 12.034 0 0 1 -11.89-10.41l-28.48-213.59h381.72zm69.62-229.59h-464v-32h464z"/><path d="m240 456h32a8 8 0 0 0 8-8v-160a8 8 0 0 0 -8-8h-32a8 8 0 0 0 -8 8v160a8 8 0 0 0 8 8zm8-160h16v144h-16z"/><path d="m128 456h32a8 8 0 0 0 8-8v-160a8 8 0 0 0 -8-8h-32a8 8 0 0 0 -8 8v160a8 8 0 0 0 8 8zm8-160h16v144h-16z"/><path d="m352 456h32a8 8 0 0 0 8-8v-160a8 8 0 0 0 -8-8h-32a8 8 0 0 0 -8 8v160a8 8 0 0 0 8 8zm8-160h16v144h-16z"/></g></g></svg>