<svg id="Layer_1" enable-background="new 0 0 256 256" height="512" viewBox="0 0 256 256" width="512" xmlns="http://www.w3.org/2000/svg"><g><g><g><path d="m228.659 118.911h-14.557v-26.727c0-36.119-29.385-65.505-65.505-65.505h-41.196c-36.119 0-65.505 29.385-65.505 65.505v26.727h-14.555v-26.727c0-44.146 35.915-80.061 80.061-80.061h41.196c44.146 0 80.061 35.915 80.061 80.061z" fill="#fcc24c"/></g></g><g><g><path d="m148.598 12.123h-10c44.146 0 80.061 35.915 80.061 80.061v26.727h10v-26.727c0-44.146-35.915-80.061-80.061-80.061z" fill="#dea42e"/></g></g><g><g><path d="m107.402 12.123h10c-44.146 0-80.061 35.915-80.061 80.061v26.727h-10v-26.727c0-44.146 35.915-80.061 80.061-80.061z" fill="#fce06a"/></g></g><g><g><path d="m228.659 120.911h-14.557c-1.104 0-2-.896-2-2v-26.727c0-35.017-28.488-63.504-63.505-63.504h-41.196c-35.017 0-63.504 28.488-63.504 63.504v26.727c0 1.104-.895 2-2 2h-14.556c-1.104 0-2-.896-2-2v-26.727c0-45.249 36.813-82.061 82.061-82.061h41.196c45.249 0 82.061 36.813 82.061 82.061v26.727c0 1.105-.895 2-2 2zm-12.557-4h10.557v-24.727c0-43.043-35.019-78.061-78.061-78.061h-41.196c-43.043 0-78.061 35.018-78.061 78.061v24.727h10.557v-24.727c0-37.222 30.282-67.504 67.504-67.504h41.196c37.223 0 67.505 30.282 67.505 67.504v24.727z" fill="#690589"/></g></g><g><path d="m160.694 4.215-18.289 7.908v13.969l18.289 7.908c2.089.903 4.214-1.198 3.335-3.297l-4.855-11.595 4.855-11.595c.879-2.1-1.246-4.201-3.335-3.298z" fill="#ff4397"/></g><g><path d="m239.119 118.913h-222.238c-6.339 0-11.477 5.138-11.477 11.477 0 6.339 5.138 11.477 11.477 11.477h222.238c6.339 0 11.477-5.138 11.477-11.477 0-6.338-5.138-11.477-11.477-11.477z" fill="#fcc24c"/></g><g><path d="m193.287 252h-130.574c-12.496 0-23.224-8.892-25.543-21.171l-16.798-88.962h215.254l-16.798 88.962c-2.317 12.279-13.045 21.171-25.541 21.171z" fill="#fcc24c"/></g><g><path d="m225.627 141.867-16.798 88.962c-2.318 12.279-13.046 21.171-25.542 21.171h10c12.496 0 23.224-8.892 25.543-21.171l16.798-88.962z" fill="#dea42e"/></g><g><path d="m239.119 118.913h-10c6.339 0 11.477 5.138 11.477 11.477s-5.138 11.477-11.477 11.477h10c6.339 0 11.477-5.138 11.477-11.477 0-6.338-5.138-11.477-11.477-11.477z" fill="#dea42e"/></g><g><path d="m30.373 141.867 16.798 88.962c2.318 12.279 13.046 21.171 25.542 21.171h-10c-12.496 0-23.224-8.892-25.543-21.171l-16.798-88.962z" fill="#fce06a"/></g><g><path d="m16.881 118.913h10c-6.339 0-11.477 5.138-11.477 11.477s5.138 11.477 11.477 11.477h-10c-6.339 0-11.477-5.138-11.477-11.477 0-6.338 5.138-11.477 11.477-11.477z" fill="#fce06a"/></g><g><path d="m107.029 65.582-2.543-12.303-11.804 4.303 22.175-39.766 14.347 8z" fill="#ff4397"/></g><g><path d="m148.971 65.582 2.543-12.303 11.804 4.303-22.176-39.766-14.347 8z" fill="#ff4397"/></g><g><path d="m107.03 67.582c-.102 0-.203-.007-.305-.023-.826-.127-1.485-.754-1.655-1.572l-2.075-10.036-9.628 3.509c-.783.286-1.664.055-2.207-.581-.542-.636-.631-1.542-.225-2.272l22.175-39.766c.259-.463.69-.805 1.201-.95.508-.145 1.057-.082 1.52.177l14.347 8c.965.538 1.312 1.756.773 2.721l-22.175 39.766c-.357.641-1.029 1.027-1.746 1.027zm-2.545-16.303c.337 0 .673.085.974.253.508.283.867.773.985 1.342l1.455 7.04 18.584-33.326-10.854-6.052-18.582 33.326 6.754-2.462c.221-.081.453-.121.684-.121z" fill="#690589"/></g><g><path d="m148.97 67.582c-.717 0-1.389-.386-1.746-1.026l-22.176-39.766c-.258-.463-.321-1.01-.177-1.521.145-.51.486-.942.95-1.2l14.348-8c.965-.538 2.184-.191 2.721.773l22.175 39.766c.406.73.317 1.636-.225 2.272s-1.423.867-2.207.581l-9.629-3.509-2.074 10.036c-.17.818-.829 1.445-1.655 1.572-.102.015-.204.022-.305.022zm-19.454-40.993 18.584 33.325 1.455-7.04c.118-.569.477-1.059.984-1.342.509-.284 1.114-.331 1.659-.132l6.755 2.462-18.583-33.325z" fill="#690589"/></g><g><path d="m95.306 34 18.289-7.908v-13.969l-18.289-7.908c-2.089-.903-4.214 1.198-3.335 3.297l4.855 11.595-4.855 11.595c-.879 2.1 1.246 4.201 3.335 3.298z" fill="#ff4397"/></g><g><path d="m159.173 19.108 4.855-11.595c.879-2.099-1.246-4.2-3.335-3.297l-3.588 1.551c.174.534.177 1.139-.077 1.746l-4.855 11.595 4.855 11.596c.254.607.251 1.211.077 1.746l3.589 1.55c2.089.903 4.214-1.198 3.335-3.297z" fill="#e12579"/></g><g><path d="m96.826 19.108-4.855 11.595c-.879 2.099 1.246 4.2 3.335 3.297l3.588-1.551c-.175-.534-.177-1.139.077-1.746l4.855-11.595-4.855-11.596c-.254-.607-.251-1.211-.077-1.746l-3.588-1.551c-2.089-.903-4.214 1.198-3.335 3.297z" fill="#ff61b5"/></g><g><path d="m193.286 254h-130.573c-13.444 0-25.013-9.589-27.507-22.8l-16.798-88.962c-.111-.585.045-1.189.425-1.647.38-.459.944-.724 1.54-.724h215.254c.596 0 1.16.265 1.54.724.38.458.536 1.063.425 1.647l-16.798 88.962c-2.494 13.211-14.063 22.8-27.508 22.8zm-170.5-110.133 16.35 86.591c2.138 11.323 12.053 19.542 23.577 19.542h130.573c11.524 0 21.439-8.219 23.578-19.542l16.35-86.591z" fill="#690589"/></g><g><path d="m239.119 143.867h-222.238c-7.431 0-13.477-6.046-13.477-13.477s6.046-13.477 13.477-13.477h222.238c7.431 0 13.477 6.046 13.477 13.477s-6.046 13.477-13.477 13.477zm-222.238-22.954c-5.226 0-9.477 4.252-9.477 9.477 0 5.226 4.251 9.477 9.477 9.477h222.238c5.226 0 9.477-4.251 9.477-9.477s-4.251-9.477-9.477-9.477z" fill="#690589"/></g><g><path d="m178.423 229.897c-.109 0-.221-.009-.333-.028-1.09-.183-1.824-1.214-1.642-2.303l10.398-61.913c.183-1.089 1.208-1.829 2.304-1.641 1.09.183 1.824 1.214 1.642 2.303l-10.397 61.913c-.165.978-1.013 1.669-1.972 1.669z" fill="#690589"/></g><g><path d="m128 229.897c-1.104 0-2-.896-2-2v-61.913c0-1.105.896-2 2-2 1.105 0 2 .895 2 2v61.913c0 1.104-.895 2-2 2z" fill="#690589"/></g><g><path d="m77.577 229.897c-.959 0-1.807-.692-1.971-1.669l-10.397-61.913c-.183-1.089.552-2.121 1.642-2.303 1.093-.188 2.121.552 2.304 1.641l10.397 61.913c.183 1.089-.552 2.121-1.642 2.303-.112.019-.224.028-.333.028z" fill="#690589"/></g><g><path d="m94.296 36.211c-1.165 0-2.308-.453-3.176-1.311-1.321-1.306-1.712-3.256-.994-4.969l4.532-10.823-4.532-10.823c-.718-1.713-.327-3.664.994-4.969 1.32-1.306 3.276-1.673 4.98-.936l18.288 7.908c.732.317 1.206 1.038 1.206 1.836v13.969c0 .798-.474 1.519-1.206 1.836l-18.288 7.908c-.583.251-1.197.374-1.804.374zm-.006-30.209c-.157 0-.277.079-.358.159-.116.114-.229.308-.116.579l4.855 11.595c.207.494.207 1.051 0 1.545l-4.855 11.596c-.113.271 0 .465.116.58s.312.226.581.109l17.082-7.386v-11.342l-17.082-7.386c-.081-.035-.156-.049-.223-.049z" fill="#690589"/></g><g><path d="m161.704 36.211c-.607 0-1.221-.122-1.805-.375l-18.288-7.908c-.732-.317-1.206-1.038-1.206-1.836v-13.969c0-.798.474-1.519 1.206-1.836l18.288-7.908c1.703-.737 3.659-.37 4.98.936s1.712 3.256.994 4.969l-4.532 10.823 4.532 10.823c.718 1.713.327 3.663-.994 4.969-.867.859-2.01 1.312-3.175 1.312zm-17.299-11.433 17.082 7.386c.27.117.466.005.581-.109.116-.115.229-.308.116-.58l-4.855-11.596c-.207-.494-.207-1.051 0-1.545l4.855-11.595c.113-.271 0-.465-.116-.579-.115-.115-.31-.226-.581-.109l-17.082 7.386zm16.288-20.563h.01z" fill="#690589"/></g><g><path d="m137.206 31.291h-18.412c-2.871 0-5.199-2.328-5.199-5.199v-13.382c0-2.871 2.328-5.199 5.199-5.199h18.412c2.871 0 5.199 2.327 5.199 5.199v13.382c0 2.871-2.328 5.199-5.199 5.199z" fill="#ff4397"/></g><g><path d="m137.206 33.291h-18.412c-3.97 0-7.199-3.229-7.199-7.199v-13.382c0-3.969 3.23-7.199 7.199-7.199h18.412c3.97 0 7.199 3.229 7.199 7.199v13.382c0 3.97-3.229 7.199-7.199 7.199zm-18.412-23.779c-1.764 0-3.199 1.435-3.199 3.199v13.382c0 1.764 1.436 3.199 3.199 3.199h18.412c1.764 0 3.199-1.435 3.199-3.199v-13.383c0-1.764-1.436-3.199-3.199-3.199h-18.412z" fill="#690589"/></g><g><path d="m37.755 182.974c-.942 0-1.782-.669-1.963-1.629l-2.266-12c-.205-1.085.509-2.131 1.594-2.336 1.081-.201 2.132.509 2.336 1.594l2.266 12c.205 1.086-.509 2.131-1.594 2.337-.125.022-.25.034-.373.034z" fill="#690589"/></g></g></svg>